<?xml version="1.0" standalone="no"?>
<!DOCTYPE svg PUBLIC "-//W3C//DTD SVG 20010904//EN"
 "http://www.w3.org/TR/2001/REC-SVG-20010904/DTD/svg10.dtd">
<svg version="1.0" xmlns="http://www.w3.org/2000/svg"
 width="1104.000000pt" height="1104.000000pt" viewBox="0 0 1104.000000 1104.000000"
 preserveAspectRatio="xMidYMid meet">
<metadata>
Created by potrace 1.11, written by Peter Selinger 2001-2013
</metadata>
<g transform="translate(0.000000,1104.000000) scale(0.100000,-0.100000)"
fill="#000000" stroke="none">
<path d="M3887 8383 c-2 -2 -28 -5 -58 -8 -110 -8 -204 -29 -329 -72 -41 -14
-81 -26 -87 -26 -7 0 -13 -4 -13 -9 0 -4 -6 -8 -14 -8 -8 0 -27 -6 -43 -14
-15 -8 -57 -29 -93 -47 -36 -18 -81 -41 -100 -52 -19 -11 -44 -25 -55 -31
-137 -74 -370 -259 -541 -430 -255 -254 -475 -563 -613 -861 -23 -49 -47 -99
-53 -109 -6 -11 -14 -31 -19 -45 -4 -14 -21 -62 -37 -107 -29 -77 -69 -212
-78 -258 -2 -12 -6 -32 -9 -46 -3 -14 -8 -41 -11 -60 -11 -63 -14 -67 -62 -80
-76 -20 -192 -59 -241 -82 -138 -62 -312 -160 -354 -199 -12 -10 -24 -19 -28
-19 -6 0 -23 -13 -118 -88 -130 -103 -304 -282 -420 -432 -28 -36 -54 -69 -59
-75 -8 -10 -125 -190 -149 -230 -41 -66 -137 -266 -171 -355 -58 -150 -80
-229 -117 -420 -4 -19 -8 -105 -10 -190 -3 -144 1 -185 31 -320 11 -49 64
-171 98 -224 38 -59 162 -186 182 -186 7 0 14 -4 16 -8 4 -11 139 -82 154 -82
7 0 14 -3 16 -7 4 -10 132 -73 146 -73 6 0 12 -3 14 -8 5 -12 273 -141 336
-161 155 -50 342 -47 548 8 92 25 138 42 269 102 39 17 73 37 77 43 4 6 8 8 8
4 0 -3 411 199 913 450 501 251 914 457 917 457 3 0 16 7 30 15 51 29 219 110
229 110 5 0 3 -21 -6 -47 -49 -160 -65 -266 -66 -443 0 -153 3 -194 19 -260 3
-14 8 -36 11 -50 2 -14 8 -34 13 -45 33 -82 43 -104 57 -130 9 -16 21 -39 27
-50 6 -11 21 -30 34 -42 13 -13 20 -23 16 -23 -15 0 113 -113 143 -126 17 -7
33 -17 35 -21 3 -8 149 -81 158 -79 3 0 19 -9 37 -22 17 -12 34 -22 38 -22 8
0 161 -76 218 -108 20 -12 40 -22 45 -23 4 -1 30 -12 57 -25 58 -26 86 -37
100 -39 6 -1 34 -7 64 -14 139 -35 357 -13 556 55 80 28 80 28 195 82 47 22
88 41 93 41 4 0 13 5 20 11 18 16 450 230 464 230 6 0 13 3 15 8 3 8 213 112
227 112 5 0 11 3 13 8 3 6 334 175 348 177 3 0 16 7 30 15 68 37 560 280 568
280 6 0 12 3 14 8 2 6 193 104 208 107 3 0 16 7 30 15 29 16 202 103 210 105
7 2 431 214 444 223 6 3 60 30 120 59 60 29 114 57 120 63 5 5 18 10 27 10 9
0 22 7 29 15 7 9 15 13 18 11 2 -3 22 6 43 20 21 13 39 22 39 18 0 -3 13 4 29
15 16 12 36 21 44 21 8 0 20 7 27 15 6 8 15 14 18 13 7 -1 115 50 142 67 8 5
17 10 20 10 10 2 234 116 245 125 7 5 15 7 18 3 4 -3 7 -1 7 5 0 7 3 11 8 10
8 -2 169 77 188 93 8 6 14 8 14 5 0 -4 12 1 28 11 15 10 45 27 67 38 22 11 42
22 45 25 3 3 26 18 52 33 26 15 53 33 60 41 8 7 27 20 43 29 17 8 39 24 50 34
11 10 43 36 70 58 118 94 299 276 385 387 8 10 25 31 38 46 68 81 204 296 276
437 52 101 141 315 151 365 2 8 10 40 19 71 18 59 19 67 31 139 4 25 9 54 11
65 13 66 24 275 14 275 -3 0 -4 21 -4 47 3 120 -59 310 -137 423 -52 74 -65
88 -131 143 -52 42 -127 82 -533 285 -140 70 -215 97 -305 110 -66 10 -240 8
-295 -3 -153 -30 -317 -85 -440 -150 -79 -42 -105 -46 -105 -19 0 8 -3 14 -7
14 -5 0 -28 18 -53 40 -25 22 -48 40 -52 40 -4 0 -13 7 -21 14 -19 20 -649
336 -669 336 -8 0 -18 3 -22 7 -3 4 -12 8 -19 9 -7 1 -30 7 -52 12 -109 30
-250 32 -430 7 -130 -17 -343 -92 -513 -181 -118 -61 -323 -189 -330 -206 -2
-4 -27 12 -55 37 -51 44 -100 71 -492 268 -254 127 -299 140 -495 141 -194 1
-338 -37 -577 -150 -51 -24 -97 -44 -103 -44 -6 0 -25 15 -43 33 -56 58 -120
103 -205 145 -46 22 -90 46 -98 53 -8 6 -14 9 -14 5 0 -3 -17 4 -37 15 -47 26
-356 183 -363 184 -3 0 -14 6 -25 12 -48 26 -157 51 -260 59 -135 10 -145 11
-148 7z"/>
</g>
</svg>
